<?xml version="1.0" standalone="no"?>
<!DOCTYPE svg PUBLIC "-//W3C//DTD SVG 20010904//EN"
 "http://www.w3.org/TR/2001/REC-SVG-20010904/DTD/svg10.dtd">
<svg version="1.0" xmlns="http://www.w3.org/2000/svg"
 width="500.000000pt" height="500.000000pt" viewBox="0 0 500.000000 500.000000"
 preserveAspectRatio="xMidYMid meet">
<metadata>
Created by potrace 1.14, written by Peter Selinger 2001-2017
</metadata>
<g transform="translate(0.000000,500.000000) scale(0.100000,-0.100000)"
fill="#000000" stroke="none">
<path d="M0 2500 l0 -2500 2500 0 2500 0 0 2500 0 2500 -2500 0 -2500 0 0
-2500z m4358 753 c-2 -177 -6 -257 -14 -260 -7 -2 -13 20 -16 60 -9 113 -62
197 -152 245 l-51 27 -292 3 -293 3 0 -431 0 -431 233 3 c216 3 235 5 273 25
81 43 122 107 139 216 4 23 11 37 20 37 13 0 15 -49 15 -340 0 -284 -2 -340
-14 -340 -17 0 -26 21 -26 60 0 70 -58 151 -135 186 -48 23 -60 24 -277 24
l-228 0 0 -416 0 -416 253 4 c279 5 330 15 432 79 109 68 208 194 260 329 16
41 33 70 41 70 8 0 14 -3 13 -7 0 -5 -30 -141 -67 -303 l-68 -295 -767 -3
c-762 -2 -767 -2 -767 18 0 17 7 20 45 20 26 0 59 7 74 14 37 20 89 79 98 114
10 35 10 1718 1 1754 -19 66 -105 127 -180 128 -26 0 -38 4 -38 14 0 13 91 15
648 19 609 3 652 5 732 24 47 11 91 21 98 22 10 1 12 -53 10 -256z m-2298 222
c108 -19 222 -53 326 -97 l71 -30 7 -60 c11 -106 7 -460 -5 -456 -6 2 -25 42
-43 90 -44 118 -89 189 -166 268 -79 80 -146 120 -265 156 -78 23 -108 26
-220 27 -136 0 -194 -9 -285 -45 -289 -113 -459 -408 -477 -828 -17 -394 95
-713 314 -888 112 -90 225 -131 388 -139 244 -13 470 72 586 220 79 100 148
266 189 455 35 163 41 147 58 -157 l15 -249 -24 -34 c-115 -165 -267 -269
-476 -325 -92 -25 -112 -27 -323 -27 -197 -1 -238 2 -332 22 -211 44 -363 110
-506 219 -168 128 -280 300 -339 518 -25 93 -27 115 -27 305 0 179 3 216 22
294 86 344 309 584 660 710 69 25 233 61 317 70 96 10 443 -2 535 -19z m499
-2324 c-22 -17 -25 -29 -29 -121 -7 -122 -20 -140 -99 -140 -78 1 -101 35
-101 151 0 69 0 69 28 69 l27 0 0 -91 c0 -78 3 -93 19 -105 26 -19 55 -18 78
3 14 12 18 31 18 82 0 83 15 136 43 156 31 22 44 19 16 -4z m324 7 c-30 -15
-43 -58 -43 -146 0 -97 -19 -122 -91 -122 -78 0 -93 20 -99 129 l-5 91 28 0
27 0 0 -87 c0 -95 13 -123 57 -123 46 0 63 32 63 120 0 43 5 90 11 104 11 23
42 45 64 45 6 0 0 -5 -12 -11z m-1438 -24 c-13 -14 -16 -36 -13 -130 l3 -114
-30 0 c-30 0 -30 0 -27 50 l4 50 -46 0 -46 0 0 -47 c0 -65 -18 -97 -55 -101
-29 -4 -29 -3 -11 16 15 18 17 35 14 136 l-3 116 30 0 30 0 -3 -55 -4 -55 46
0 46 0 0 49 c0 55 28 101 61 101 19 0 19 -1 4 -16z m148 5 c12 -6 59 -50 105
-97 l83 -87 -3 78 c-3 76 -3 77 22 77 l25 0 -3 -98 -4 -99 31 -31 c17 -17 41
-33 54 -35 15 -3 10 -5 -13 -6 -32 -1 -43 7 -128 96 l-94 98 4 -73 3 -72 -30
0 -30 0 3 96 c3 88 2 98 -19 120 -12 13 -28 24 -35 24 -7 0 -16 5 -19 10 -8
13 21 13 48 -1z m2130 0 c12 -6 59 -50 105 -97 l83 -87 -3 78 c-3 76 -3 77 22
77 l25 0 -3 -98 -4 -99 31 -31 c17 -17 41 -33 54 -35 15 -3 10 -5 -13 -6 -32
-1 -43 7 -128 96 l-94 98 4 -73 3 -72 -30 0 -30 0 3 96 c3 88 2 98 -19 120
-12 13 -28 24 -35 24 -7 0 -16 5 -19 10 -8 13 21 13 48 -1z m319 -36 c14 -16
40 -54 58 -86 l32 -58 41 70 c22 39 43 71 47 71 3 0 13 -43 22 -96 10 -53 20
-99 23 -102 10 -10 22 11 55 90 35 83 33 99 -15 118 -16 7 -13 9 16 9 48 1 69
-24 114 -136 40 -101 72 -143 107 -143 21 -1 21 -2 5 -11 -41 -24 -121 32
-142 99 -9 31 -80 33 -90 2 -3 -11 -3 -24 0 -30 4 -6 -5 -10 -19 -10 -14 0
-26 -4 -26 -8 0 -11 30 -38 50 -45 8 -3 1 -6 -16 -6 -59 -2 -92 41 -109 144
l-7 39 -32 -57 c-18 -31 -35 -60 -39 -63 -3 -4 -21 24 -39 60 -29 59 -34 64
-39 44 -4 -13 -7 -42 -8 -65 -1 -37 -4 -43 -22 -43 -16 0 -19 3 -11 13 6 6 14
45 17 84 8 80 -5 115 -48 133 -19 8 -17 9 14 9 26 1 42 -6 61 -26z m-2888 -3
c19 -7 26 -17 26 -36 l0 -27 -21 27 c-27 34 -88 37 -119 4 -30 -33 -28 -111 5
-143 35 -36 88 -34 126 4 16 16 29 25 29 20 0 -6 -11 -21 -25 -34 -19 -20 -34
-25 -77 -25 -70 0 -113 26 -127 77 -26 93 82 172 183 133z m416 -9 c-14 -28
-13 -174 2 -189 9 -9 2 -12 -32 -11 -25 0 -39 3 -32 6 8 3 12 33 12 99 l0 95
-27 -3 c-20 -2 -28 -8 -27 -20 1 -10 -3 -18 -8 -18 -5 0 -8 10 -6 22 3 24 31
34 96 37 29 1 32 -1 22 -18z m410 5 c0 -9 -8 -12 -25 -8 -24 4 -25 2 -25 -42
0 -44 1 -46 28 -46 15 0 33 5 40 12 9 9 12 6 12 -17 0 -23 -3 -26 -12 -17 -7
7 -25 12 -40 12 -27 0 -28 -2 -28 -45 0 -44 1 -45 31 -45 31 0 68 15 82 34 6
7 7 4 3 -7 -3 -10 -6 -23 -6 -28 0 -5 -37 -9 -82 -9 l-83 0 0 110 0 110 53 0
c37 0 52 -4 52 -14z m263 -7 c40 -18 62 -73 48 -119 -18 -60 -42 -74 -130 -78
l-76 -4 3 101 c4 110 0 117 -48 84 l-25 -17 19 22 c10 11 30 23 45 26 40 7
136 -2 164 -15z m784 -21 c-14 -24 -41 -73 -61 -109 l-37 -67 91 -22 c49 -12
106 -20 125 -18 39 4 43 1 18 -18 -31 -23 -91 -16 -187 23 -50 20 -92 37 -94
39 -2 1 19 42 47 92 28 49 51 92 51 96 0 11 -76 6 -88 -6 -9 -9 -12 -7 -12 10
0 21 4 22 86 22 l86 0 -25 -42z m249 23 c25 -15 33 -16 48 -5 51 37 184 28
228 -16 47 -48 32 -141 -27 -168 -36 -17 -173 -16 -157 0 8 8 12 45 12 100 0
94 -5 102 -47 73 -19 -13 -21 -19 -11 -40 15 -33 2 -88 -27 -115 -33 -31 -127
-40 -173 -16 -34 17 -62 61 -62 96 0 41 44 100 74 100 2 0 -3 -18 -11 -39 -42
-107 57 -211 128 -135 18 20 24 37 24 74 0 57 -24 90 -65 90 -30 0 -45 -13
-53 -45 -4 -16 -5 -14 -6 7 -2 53 67 75 125 39z m426 7 c-17 -17 -16 -195 1
-201 6 -3 -8 -6 -32 -6 -35 -1 -42 2 -33 11 8 8 12 45 12 101 l0 88 -27 -3
c-20 -2 -28 -8 -27 -20 2 -20 -11 -24 -21 -8 -16 27 24 45 105 49 26 1 31 -2
22 -11z"/>
<path d="M4347 1003 c-18 -34 -14 -43 20 -43 21 0 23 4 17 23 -14 48 -21 52
-37 20z"/>
<path d="M2140 995 c0 -94 0 -95 24 -95 33 0 74 39 77 70 5 82 -17 120 -71
120 l-30 0 0 -95z"/>
<path d="M3420 994 l0 -97 37 6 c50 8 65 27 70 84 6 63 -22 103 -73 103 l-34
0 0 -96z"/>
</g>
</svg>
